HIERARCHY
ROOT Hips
{
	OFFSET	0.00	0.00	0.00
	CHANNELS 6 Xposition Yposition Zposition Zrotation Xrotation Yrotation
	JOINT LeftUpLeg
	{
		OFFSET	 0.126116	-0.014019	-0.065224
		CHANNELS 3 Zrotation Xrotation Yrotation
		JOINT LeftLeg
		{
			OFFSET	 0.000000	 0.000000	 0.569914
			CHANNELS 3 Zrotation Xrotation Yrotation
			JOINT LeftFoot
			{
				OFFSET	 0.000000	 0.000000	 0.544423
				CHANNELS 3 Zrotation Xrotation Yrotation
				JOINT LeftToeBase
				{
					OFFSET	 0.000000	 0.000000	 0.207117
					CHANNELS 3 Zrotation Xrotation Yrotation
					End Site
					{
						OFFSET	 0.000000	 0.000000	 0.207117
					}
				}
			}
		}
	}
	JOINT RightUpLeg
	{
		OFFSET	-0.124023	-0.008373	-0.065224
		CHANNELS 3 Zrotation Xrotation Yrotation
		JOINT RightLeg
		{
			OFFSET	 0.000000	 0.000000	 0.570047
			CHANNELS 3 Zrotation Xrotation Yrotation
			JOINT RightFoot
			{
				OFFSET	 0.000000	 0.000000	 0.544354
				CHANNELS 3 Zrotation Xrotation Yrotation
				JOINT RightToeBase
				{
					OFFSET	 0.000000	 0.000000	 0.207540
					CHANNELS 3 Zrotation Xrotation Yrotation
					End Site
					{
						OFFSET	 0.000000	 0.000000	 0.207540
					}
				}
			}
		}
	}
	JOINT Spine
	{
		OFFSET	 0.000184	-0.007763	 0.117403
		CHANNELS 3 Zrotation Xrotation Yrotation
		JOINT Spine1
		{
			OFFSET	 0.000000	 0.000000	 0.137269
			CHANNELS 3 Zrotation Xrotation Yrotation
			JOINT Spine2
			{
				OFFSET	 0.000000	 0.000000	 0.156879
				CHANNELS 3 Zrotation Xrotation Yrotation
				JOINT LeftShoulder
				{
					OFFSET	 0.080501	-0.002496	 0.160144
					CHANNELS 3 Zrotation Xrotation Yrotation
					JOINT LeftArm
					{
						OFFSET	 0.000000	 0.000000	 0.164363
						CHANNELS 3 Zrotation Xrotation Yrotation
						JOINT LeftForeArm
						{
							OFFSET	 0.000000	 0.000000	 0.364576
							CHANNELS 3 Zrotation Xrotation Yrotation
							JOINT LeftHand
							{
								OFFSET	 0.000000	 0.000000	 0.360812
								CHANNELS 3 Zrotation Xrotation Yrotation
								JOINT LeftHandIndex1
								{
									OFFSET	 0.000000	 0.000000	 0.086006
									CHANNELS 3 Zrotation Xrotation Yrotation
									JOINT LeftHandIndex2
									{
										OFFSET	 0.000000	 0.000000	 0.047236
										CHANNELS 3 Zrotation Xrotation Yrotation
										JOINT LeftHandIndex3
										{
											OFFSET	-0.004284	-0.000551	 0.038166
											CHANNELS 3 Zrotation Xrotation Yrotation
											End Site
											{
												OFFSET	-0.004284	-0.000551	 0.038166
											}
										}
									}
								}
							}
						}
					}
				}
				JOINT Neck
				{
					OFFSET	 0.000000	 0.000000	 0.176489
					CHANNELS 3 Zrotation Xrotation Yrotation
					JOINT Head
					{
						OFFSET	 0.000000	-0.001747	 0.077940
						CHANNELS 3 Zrotation Xrotation Yrotation
						End Site
						{
							OFFSET	 0.000000	-0.001747	 0.077940
						}
					}
				}
				JOINT RightShoulder
				{
					OFFSET	-0.080363	 0.000306	 0.159706
					CHANNELS 3 Zrotation Xrotation Yrotation
					JOINT RightArm
					{
						OFFSET	 0.000000	 0.000000	 0.164196
						CHANNELS 3 Zrotation Xrotation Yrotation
						JOINT RightForeArm
						{
							OFFSET	 0.000000	 0.000000	 0.365611
							CHANNELS 3 Zrotation Xrotation Yrotation
							JOINT RightHand
							{
								OFFSET	 0.000000	 0.000000	 0.360648
								CHANNELS 3 Zrotation Xrotation Yrotation
								JOINT RightHandIndex1
								{
									OFFSET	 0.000000	 0.000000	 0.069977
									CHANNELS 3 Zrotation Xrotation Yrotation
									JOINT RightHandIndex2
									{
										OFFSET	 0.000000	 0.000000	 0.052305
										CHANNELS 3 Zrotation Xrotation Yrotation
										JOINT RightHandIndex3
										{
											OFFSET	 0.009002	-0.000782	 0.042196
											CHANNELS 3 Zrotation Xrotation Yrotation
											End Site
											{
												OFFSET	 0.009002	-0.000782	 0.042196
											}
										}
									}
								}
							}
						}
					}
				}
			}
		}
	}
}
MOTION
Frames:    6
Frame Time: 0.03333334
-0.040909	 0.310293	 0.970072	 3.862004	 33.661630	-8.416863	 105.434200	-88.123730	-75.196870	 11.137220	-79.300670	 11.358160	-6.674462	 85.043820	 9.022890	-2.385832	 28.452790	-0.000001	 105.457400	-77.417970	-78.562020	-25.001590	-80.268880	-19.591520	 49.610570	 80.477170	-38.491100	 2.384659	 28.388700	-0.000001	 0.282435	 16.220270	-0.211948	-1.540155	 23.909580	-0.043195	-7.478184	-1.702663	 4.667303	-99.055560	 68.191160	 157.135100	 9.802627	-3.366601	-29.263820	-2.385315	 13.890280	-46.357690	-23.805160	-19.010560	-18.104580	-2.027600	 6.559038	 9.033609	-5.188889	 0.308190	 3.541030	-5.234859	 0.342567	 0.430617	 0.074469	 16.036440	-5.279305	-6.923450	-25.098200	-4.184235	 97.350140	 64.608120	-159.402400	-4.170128	 2.988608	 50.523860	-6.499921	 0.589392	 27.099220	 7.955564	-17.876820	 14.133090	 1.803333	 3.979147	-15.098590	 4.898592	 3.004813	-9.310344	 5.224449	 0.395017	 2.014677
-0.041476	 0.309481	 0.980468	 3.608370	 32.381080	-7.652789	 28.514500	-87.901090	-152.007200	 9.631511	-78.109140	 9.836696	-9.868416	 84.722150	 12.230470	-2.385832	 28.452790	-0.000001	 94.855510	-78.543570	-89.164690	-23.354760	-78.935200	-17.891770	 46.920930	 80.324910	-35.611420	 2.384659	 28.388700	-0.000001	 0.814479	 16.692980	-0.535523	-0.872966	 25.033460	-0.911942	-8.066834	-3.479188	 4.226692	-98.283920	 69.035690	 158.271500	 9.303379	-0.655594	-31.276400	-1.942939	 13.551280	-46.696250	-24.791950	-19.677970	-19.260970	-2.027600	 6.559038	 9.033609	-5.188889	 0.308190	 3.541030	-5.234859	 0.342567	 0.430617	-0.636249	 9.599708	-3.748737	-7.571318	-18.697660	-4.305362	 96.965420	 64.117680	-160.815000	-4.869055	 2.626247	 51.835780	-5.940713	 0.892723	 27.549030	 7.665558	-17.755740	 15.829690	 1.803333	 3.979147	-15.098590	 4.898592	 3.004813	-9.310344	 5.224449	 0.395017	 2.014677
-0.040881	 0.309601	 0.997603	 3.010750	 30.499440	-6.479646	-0.182938	-84.559170	 179.282200	 8.147998	-75.974730	 8.312843	-13.247290	 84.181660	 15.412540	-2.385833	 28.452760	 0.000004	 75.399830	-79.240050	-108.692100	-21.383500	-76.512460	-15.812100	 43.005430	 80.009350	-31.417470	 2.384659	 28.388700	-0.000001	 1.064623	 17.372670	-0.809011	-0.170663	 25.907920	-1.637393	-8.402081	-5.653062	 3.507737	-96.528170	 71.724410	 159.645800	 9.801662	 4.366485	-34.408150	-1.407154	 12.959210	-46.738010	-26.180210	-20.626400	-21.360900	-2.027600	 6.559038	 9.033609	-5.188889	 0.308190	 3.541030	-5.234859	 0.342567	 0.430617	-1.140074	 0.415871	-2.321688	-7.834290	-9.724314	-3.980786	 96.163510	 65.189350	-161.966900	-5.732283	 4.849504	 52.916310	-6.319647	 0.719577	 28.374300	 7.305334	-17.805560	 17.069500	 1.803333	 3.979147	-15.098590	 4.898592	 3.004813	-9.310344	 5.224449	 0.395017	 2.014677
-0.039161	 0.310550	 1.015131	 2.517964	 28.577920	-5.375507	-5.701618	-80.888370	 173.796100	 7.651250	-73.665810	 7.746193	-14.551150	 83.553930	 16.302470	-2.385833	 28.452750	 0.000004	 55.452110	-78.461480	-128.648800	-18.913600	-74.005520	-13.253530	 39.572890	 79.716370	-27.951070	 2.384659	 28.388700	-0.000001	 0.998241	 17.967240	-1.035686	 0.327081	 26.306270	-2.182587	-8.356998	-6.929699	 3.007910	-94.299490	 75.168500	 160.594100	 11.161640	 9.610173	-38.061010	-0.950784	 12.339550	-46.507770	-27.205380	-21.509350	-23.031260	-2.027600	 6.559038	 9.033609	-5.188889	 0.308190	 3.541030	-5.234859	 0.342567	 0.430617	-1.455851	-7.803980	-2.318430	-7.609278	-1.507145	-2.744161	 95.018510	 67.408440	-163.097800	-6.637184	 8.217201	 54.224810	-6.830562	 0.463465	 29.441610	 7.299976	-18.639940	 17.786740	 1.803333	 3.979147	-15.098590	 4.898592	 3.004813	-9.310344	 5.224449	 0.395017	 2.014677
-0.035165	 0.309488	 1.039911	 2.405511	 26.365980	-4.213189	-7.546895	-76.143340	 172.289200	 7.159143	-70.244240	 7.123291	-12.851360	 82.589180	 14.062540	-2.385833	 28.452750	 0.000004	 36.477990	-75.529020	-147.368800	-14.505970	-70.497680	-8.831422	 36.166910	 79.116840	-25.122980	 2.384659	 28.388700	-0.000001	 0.739729	 17.864450	-1.479407	 0.598381	 26.399850	-2.657191	-7.952576	-8.475552	 2.264059	-93.479230	 76.128170	 162.295000	 13.863460	 13.471530	-40.078950	-0.201999	 11.725510	-47.050990	-26.959450	-22.059250	-24.875700	-2.027600	 6.559038	 9.033609	-5.188889	 0.308190	 3.541030	-5.234859	 0.342567	 0.430617	-1.669140	-13.835880	-1.742653	-7.198182	 4.693594	-2.225213	 93.999200	 69.252980	-164.330000	-8.417385	 11.691100	 53.801370	-7.362381	 0.181016	 32.046160	 7.004031	-19.276770	 18.127470	 1.803333	 3.979147	-15.098590	 4.898592	 3.004813	-9.310344	 5.224449	 0.395017	 2.014677
-0.029610	 0.304115	 1.070778	 2.630471	 24.497830	-3.146729	-8.221235	-70.959560	 172.158500	 6.383303	-65.795580	 6.206947	-9.914714	 81.250340	 10.615830	-2.385833	 28.452750	 0.000004	 24.049300	-71.037590	-159.292600	-10.672240	-65.767010	-5.041668	 31.946250	 77.933500	-21.607150	 2.384659	 28.388700	-0.000001	 0.230596	 16.475560	-1.830057	 0.806700	 26.148480	-2.976319	-7.284205	-10.156190	 1.407772	-94.275640	 74.222980	 164.415700	 17.046280	 14.965720	-38.942620	 0.924340	 11.306350	-49.258240	-25.285960	-21.996470	-25.692440	-2.027600	 6.559038	 9.033609	-5.188889	 0.308190	 3.541030	-5.234859	 0.342567	 0.430617	-1.761745	-15.085720	-0.985757	-6.372307	 6.519777	-2.289873	 93.915590	 68.098310	-165.980600	-10.432620	 13.046290	 50.533040	-7.807223	-0.118079	 37.178270	 6.015076	-19.010780	 18.252120	 1.803333	 3.979147	-15.098590	 4.898592	 3.004813	-9.310344	 5.224449	 0.395017	 2.014677
